<svg width="71" height="71" viewBox="0 0 71 71" fill="none" xmlns="http://www.w3.org/2000/svg">
<mask id="path-1-inside-1_177_1735" fill="white">
<path d="M0 12C0 5.37258 5.37258 0 12 0H59C65.6274 0 71 5.37258 71 12V59C71 65.6274 65.6274 71 59 71H12C5.37258 71 0 65.6274 0 59V12Z"/>
</mask>
<path d="M0 12C0 5.37258 5.37258 0 12 0H59C65.6274 0 71 5.37258 71 12V59C71 65.6274 65.6274 71 59 71H12C5.37258 71 0 65.6274 0 59V12Z" fill="url(#paint0_linear_177_1735)" fill-opacity="0.11"/>
<g clip-path="url(#paint1_diamond_177_1735_clip_path)" data-figma-skip-parse="true" mask="url(#path-1-inside-1_177_1735)"><g transform="matrix(-0.0337561 0.0332097 -0.0332097 -0.0792532 35.5 35.5)"><rect x="0" y="0" width="1116.25" height="664.666" fill="url(#paint1_diamond_177_1735)" opacity="1" shape-rendering="crispEdges"/><rect x="0" y="0" width="1116.25" height="664.666" transform="scale(1 -1)" fill="url(#paint1_diamond_177_1735)" opacity="1" shape-rendering="crispEdges"/><rect x="0" y="0" width="1116.25" height="664.666" transform="scale(-1 1)" fill="url(#paint1_diamond_177_1735)" opacity="1" shape-rendering="crispEdges"/><rect x="0" y="0" width="1116.25" height="664.666" transform="scale(-1)" fill="url(#paint1_diamond_177_1735)" opacity="1" shape-rendering="crispEdges"/></g></g><path d="M12 2H59V-2H12V2ZM69 12V59H73V12H69ZM59 69H12V73H59V69ZM2 59V12H-2V59H2ZM12 69C6.47715 69 2 64.5229 2 59H-2C-2 66.732 4.26801 73 12 73V69ZM69 59C69 64.5229 64.5229 69 59 69V73C66.732 73 73 66.732 73 59H69ZM59 2C64.5229 2 69 6.47715 69 12H73C73 4.26801 66.732 -2 59 -2V2ZM12 -2C4.26801 -2 -2 4.26801 -2 12H2C2 6.47715 6.47715 2 12 2V-2Z" data-figma-gradient-fill="{&#34;type&#34;:&#34;GRADIENT_DIAMOND&#34;,&#34;stops&#34;:[{&#34;color&#34;:{&#34;r&#34;:0.28627452254295349,&#34;g&#34;:0.72549021244049072,&#34;b&#34;:0.90980392694473267,&#34;a&#34;:1.0},&#34;position&#34;:0.0},{&#34;color&#34;:{&#34;r&#34;:0.12156862020492554,&#34;g&#34;:0.30196088552474976,&#34;b&#34;:0.37647059559822083,&#34;a&#34;:0.43000000715255737},&#34;position&#34;:1.0}],&#34;stopsVar&#34;:[],&#34;transform&#34;:{&#34;m00&#34;:-67.512283325195312,&#34;m01&#34;:-66.419357299804688,&#34;m02&#34;:102.46582031250,&#34;m10&#34;:66.419357299804688,&#34;m11&#34;:-158.50631713867188,&#34;m12&#34;:81.543487548828125},&#34;opacity&#34;:1.0,&#34;blendMode&#34;:&#34;NORMAL&#34;,&#34;visible&#34;:true}" mask="url(#path-1-inside-1_177_1735)"/>
<defs>
<clipPath id="paint1_diamond_177_1735_clip_path"><path d="M12 2H59V-2H12V2ZM69 12V59H73V12H69ZM59 69H12V73H59V69ZM2 59V12H-2V59H2ZM12 69C6.47715 69 2 64.5229 2 59H-2C-2 66.732 4.26801 73 12 73V69ZM69 59C69 64.5229 64.5229 69 59 69V73C66.732 73 73 66.732 73 59H69ZM59 2C64.5229 2 69 6.47715 69 12H73C73 4.26801 66.732 -2 59 -2V2ZM12 -2C4.26801 -2 -2 4.26801 -2 12H2C2 6.47715 6.47715 2 12 2V-2Z"/></clipPath><linearGradient id="paint0_linear_177_1735" x1="35.5" y1="0" x2="35.5" y2="71" gradientUnits="userSpaceOnUse">
<stop stop-color="#00E0FF"/>
<stop offset="1" stop-color="#00E0FF" stop-opacity="0.49"/>
</linearGradient>
<linearGradient id="paint1_diamond_177_1735" x1="0" y1="0" x2="500" y2="500" gradientUnits="userSpaceOnUse">
<stop stop-color="#49B9E8"/>
<stop offset="1" stop-color="#1F4D60" stop-opacity="0.43"/>
</linearGradient>
</defs>
</svg>
